# Tiled2Unity generated file. Do not modify by hand.
# Wavefront file for 'blowhardLoupe_mesh_0008.obj'

# Vertices (Count = 644)
v 0 -1.6 0
v -1.6 -1.6 0
v -1.6 0 0
v 0 0 0
v -169.6 -3.2 0
v -171.2 -3.2 0
v -171.2 -1.6 0
v -169.6 -1.6 0
v -94.4 -4.8 0
v -96 -4.8 0
v -96 -3.2 0
v -94.4 -3.2 0
v -142.4 -4.8 0
v -144 -4.8 0
v -144 -3.2 0
v -142.4 -3.2 0
v -17.6 -6.4 0
v -19.2 -6.4 0
v -19.2 -4.8 0
v -17.6 -4.8 0
v -96 -6.4 0
v -97.6 -6.4 0
v -97.6 -4.8 0
v -96 -4.8 0
v -12.8 -8 0
v -14.4 -8 0
v -14.4 -6.4 0
v -12.8 -6.4 0
v -187.2 -8 0
v -188.8 -8 0
v -188.8 -6.4 0
v -187.2 -6.4 0
v -4.8 -9.6 0
v -6.4 -9.6 0
v -6.4 -8 0
v -4.8 -8 0
v -24 -9.6 0
v -25.6 -9.6 0
v -25.6 -8 0
v -24 -8 0
v -57.6 -9.6 0
v -59.2 -9.6 0
v -59.2 -8 0
v -57.6 -8 0
v -38.4 -12.8 0
v -40 -12.8 0
v -40 -11.2 0
v -38.4 -11.2 0
v -108.8 -12.8 0
v -110.4 -12.8 0
v -110.4 -11.2 0
v -108.8 -11.2 0
v -187.2 -12.8 0
v -188.8 -12.8 0
v -188.8 -11.2 0
v -187.2 -11.2 0
v -147.2 -14.4 0
v -148.8 -14.4 0
v -148.8 -12.8 0
v -147.2 -12.8 0
v -148.8 -14.4 0
v -150.4 -14.4 0
v -150.4 -12.8 0
v -148.8 -12.8 0
v -150.4 -14.4 0
v -152 -14.4 0
v -152 -12.8 0
v -150.4 -12.8 0
v -44.8 -16 0
v -46.4 -16 0
v -46.4 -14.4 0
v -44.8 -14.4 0
v -48 -16 0
v -49.6 -16 0
v -49.6 -14.4 0
v -48 -14.4 0
v -6.4 -17.6 0
v -8 -17.6 0
v -8 -16 0
v -6.4 -16 0
v -65.6 -17.6 0
v -67.2 -17.6 0
v -67.2 -16 0
v -65.6 -16 0
v -179.2 -17.6 0
v -180.8 -17.6 0
v -180.8 -16 0
v -179.2 -16 0
v -22.4 -22.4 0
v -24 -22.4 0
v -24 -20.8 0
v -22.4 -20.8 0
v -28.8 -22.4 0
v -30.4 -22.4 0
v -30.4 -20.8 0
v -28.8 -20.8 0
v -124.8 -22.4 0
v -126.4 -22.4 0
v -126.4 -20.8 0
v -124.8 -20.8 0
v -160 -22.4 0
v -161.6 -22.4 0
v -161.6 -20.8 0
v -160 -20.8 0
v -161.6 -22.4 0
v -163.2 -22.4 0
v -163.2 -20.8 0
v -161.6 -20.8 0
v -163.2 -22.4 0
v -164.8 -22.4 0
v -164.8 -20.8 0
v -163.2 -20.8 0
v -196.8 -27.2 0
v -198.4 -27.2 0
v -198.4 -25.6 0
v -196.8 -25.6 0
v -198.4 -27.2 0
v -200 -27.2 0
v -200 -25.6 0
v -198.4 -25.6 0
v -200 -27.2 0
v -201.6 -27.2 0
v -201.6 -25.6 0
v -200 -25.6 0
v -150.4 -28.8 0
v -152 -28.8 0
v -152 -27.2 0
v -150.4 -27.2 0
v -156.8 -28.8 0
v -158.4 -28.8 0
v -158.4 -27.2 0
v -156.8 -27.2 0
v -8 -32 0
v -9.6 -32 0
v -9.6 -30.4 0
v -8 -30.4 0
v -192 -33.6 0
v -193.6 -33.6 0
v -193.6 -32 0
v -192 -32 0
v 0 -35.2 0
v -1.6 -35.2 0
v -1.6 -33.6 0
v 0 -33.6 0
v -158.4 -35.2 0
v -160 -35.2 0
v -160 -33.6 0
v -158.4 -33.6 0
v -198.4 -35.2 0
v -200 -35.2 0
v -200 -33.6 0
v -198.4 -33.6 0
v 0 -40 0
v -1.6 -40 0
v -1.6 -38.4 0
v 0 -38.4 0
v -17.6 -44.8 0
v -19.2 -44.8 0
v -19.2 -43.2 0
v -17.6 -43.2 0
v -36.8 -51.2 0
v -38.4 -51.2 0
v -38.4 -49.6 0
v -36.8 -49.6 0
v -1.6 -56 0
v -3.2 -56 0
v -3.2 -54.4 0
v -1.6 -54.4 0
v -59.2 -56 0
v -60.8 -56 0
v -60.8 -54.4 0
v -59.2 -54.4 0
v -132.8 -60.8 0
v -134.4 -60.8 0
v -134.4 -59.2 0
v -132.8 -59.2 0
v -35.2 -65.6 0
v -36.8 -65.6 0
v -36.8 -64 0
v -35.2 -64 0
v -35.2 -70.4 0
v -36.8 -70.4 0
v -36.8 -68.8 0
v -35.2 -68.8 0
v -132.8 -72 0
v -134.4 -72 0
v -134.4 -70.4 0
v -132.8 -70.4 0
v -64 -73.6 0
v -65.6 -73.6 0
v -65.6 -72 0
v -64 -72 0
v -70.4 -75.2 0
v -72 -75.2 0
v -72 -73.6 0
v -70.4 -73.6 0
v -105.6 -75.2 0
v -107.2 -75.2 0
v -107.2 -73.6 0
v -105.6 -73.6 0
v -132.8 -76.8 0
v -134.4 -76.8 0
v -134.4 -75.2 0
v -132.8 -75.2 0
v -48 -78.4 0
v -49.6 -78.4 0
v -49.6 -76.8 0
v -48 -76.8 0
v -91.2 -78.4 0
v -92.8 -78.4 0
v -92.8 -76.8 0
v -91.2 -76.8 0
v -35.2 -80 0
v -36.8 -80 0
v -36.8 -78.4 0
v -35.2 -78.4 0
v -35.2 -83.2 0
v -36.8 -83.2 0
v -36.8 -81.6 0
v -35.2 -81.6 0
v -70.4 -83.2 0
v -72 -83.2 0
v -72 -81.6 0
v -70.4 -81.6 0
v -96 -86.4 0
v -97.6 -86.4 0
v -97.6 -84.8 0
v -96 -84.8 0
v -198.4 -88 0
v -200 -88 0
v -200 -86.4 0
v -198.4 -86.4 0
v -86.4 -89.6 0
v -88 -89.6 0
v -88 -88 0
v -86.4 -88 0
v -65.6 -91.2 0
v -67.2 -91.2 0
v -67.2 -89.6 0
v -65.6 -89.6 0
v -150.4 -92.8 0
v -152 -92.8 0
v -152 -91.2 0
v -150.4 -91.2 0
v -172.8 -100.8 0
v -174.4 -100.8 0
v -174.4 -99.2 0
v -172.8 -99.2 0
v -150.4 -107.2 0
v -152 -107.2 0
v -152 -105.6 0
v -150.4 -105.6 0
v -46.4 -115.2 0
v -48 -115.2 0
v -48 -113.6 0
v -46.4 -113.6 0
v -1.6 -129.6 0
v -3.2 -129.6 0
v -3.2 -128 0
v -1.6 -128 0
v -96 -136 0
v -97.6 -136 0
v -97.6 -134.4 0
v -96 -134.4 0
v -97.6 -136 0
v -99.2 -136 0
v -99.2 -134.4 0
v -97.6 -134.4 0
v -96 -137.6 0
v -97.6 -137.6 0
v -97.6 -136 0
v -96 -136 0
v -97.6 -137.6 0
v -99.2 -137.6 0
v -99.2 -136 0
v -97.6 -136 0
v -164.8 -139.2 0
v -166.4 -139.2 0
v -166.4 -137.6 0
v -164.8 -137.6 0
v -96 -144 0
v -97.6 -144 0
v -97.6 -142.4 0
v -96 -142.4 0
v -4.8 -145.6 0
v -6.4 -145.6 0
v -6.4 -144 0
v -4.8 -144 0
v -118.4 -145.6 0
v -120 -145.6 0
v -120 -144 0
v -118.4 -144 0
v -134.4 -147.2 0
v -136 -147.2 0
v -136 -145.6 0
v -134.4 -145.6 0
v -11.2 -148.8 0
v -12.8 -148.8 0
v -12.8 -147.2 0
v -11.2 -147.2 0
v -113.6 -150.4 0
v -115.2 -150.4 0
v -115.2 -148.8 0
v -113.6 -148.8 0
v -14.4 -158.4 0
v -16 -158.4 0
v -16 -156.8 0
v -14.4 -156.8 0
v -67.2 -160 0
v -68.8 -160 0
v -68.8 -158.4 0
v -67.2 -158.4 0
v -86.4 -160 0
v -88 -160 0
v -88 -158.4 0
v -86.4 -158.4 0
v -190.4 -160 0
v -192 -160 0
v -192 -158.4 0
v -190.4 -158.4 0
v -110.4 -163.2 0
v -112 -163.2 0
v -112 -161.6 0
v -110.4 -161.6 0
v -161.6 -163.2 0
v -163.2 -163.2 0
v -163.2 -161.6 0
v -161.6 -161.6 0
v -108.8 -176 0
v -110.4 -176 0
v -110.4 -174.4 0
v -108.8 -174.4 0
v -169.6 -176 0
v -171.2 -176 0
v -171.2 -174.4 0
v -169.6 -174.4 0
v -203.2 -176 0
v -204.8 -176 0
v -204.8 -174.4 0
v -203.2 -174.4 0
v -9.6 -179.2 0
v -11.2 -179.2 0
v -11.2 -177.6 0
v -9.6 -177.6 0
v -118.4 -184 0
v -120 -184 0
v -120 -182.4 0
v -118.4 -182.4 0
v -132.8 -184 0
v -134.4 -184 0
v -134.4 -182.4 0
v -132.8 -182.4 0
v -9.6 -187.2 0
v -11.2 -187.2 0
v -11.2 -185.6 0
v -9.6 -185.6 0
v -54.4 -188.8 0
v -56 -188.8 0
v -56 -187.2 0
v -54.4 -187.2 0
v -190.4 -188.8 0
v -192 -188.8 0
v -192 -187.2 0
v -190.4 -187.2 0
v -81.6 -195.2 0
v -83.2 -195.2 0
v -83.2 -193.6 0
v -81.6 -193.6 0
v -86.4 -195.2 0
v -88 -195.2 0
v -88 -193.6 0
v -86.4 -193.6 0
v -68.8 -196.8 0
v -70.4 -196.8 0
v -70.4 -195.2 0
v -68.8 -195.2 0
v -8 -198.4 0
v -9.6 -198.4 0
v -9.6 -196.8 0
v -8 -196.8 0
v -112 -200 0
v -113.6 -200 0
v -113.6 -198.4 0
v -112 -198.4 0
v -113.6 -200 0
v -115.2 -200 0
v -115.2 -198.4 0
v -113.6 -198.4 0
v -62.4 -201.6 0
v -64 -201.6 0
v -64 -200 0
v -62.4 -200 0
v -153.6 -201.6 0
v -155.2 -201.6 0
v -155.2 -200 0
v -153.6 -200 0
v -198.4 -204.8 0
v -200 -204.8 0
v -200 -203.2 0
v -198.4 -203.2 0
v -192 -216 0
v -193.6 -216 0
v -193.6 -214.4 0
v -192 -214.4 0
v -156.8 -219.2 0
v -158.4 -219.2 0
v -158.4 -217.6 0
v -156.8 -217.6 0
v -75.2 -220.8 0
v -76.8 -220.8 0
v -76.8 -219.2 0
v -75.2 -219.2 0
v -96 -220.8 0
v -97.6 -220.8 0
v -97.6 -219.2 0
v -96 -219.2 0
v -4.8 -222.4 0
v -6.4 -222.4 0
v -6.4 -220.8 0
v -4.8 -220.8 0
v -94.4 -224 0
v -96 -224 0
v -96 -222.4 0
v -94.4 -222.4 0
v -200 -224 0
v -201.6 -224 0
v -201.6 -222.4 0
v -200 -222.4 0
v -33.6 -225.6 0
v -35.2 -225.6 0
v -35.2 -224 0
v -33.6 -224 0
v -64 -225.6 0
v -65.6 -225.6 0
v -65.6 -224 0
v -64 -224 0
v -147.2 -227.2 0
v -148.8 -227.2 0
v -148.8 -225.6 0
v -147.2 -225.6 0
v -105.6 -228.8 0
v -107.2 -228.8 0
v -107.2 -227.2 0
v -105.6 -227.2 0
v -120 -228.8 0
v -121.6 -228.8 0
v -121.6 -227.2 0
v -120 -227.2 0
v -185.6 -228.8 0
v -187.2 -228.8 0
v -187.2 -227.2 0
v -185.6 -227.2 0
v -17.6 -233.6 0
v -19.2 -233.6 0
v -19.2 -232 0
v -17.6 -232 0
v -161.6 -233.6 0
v -163.2 -233.6 0
v -163.2 -232 0
v -161.6 -232 0
v -96 -236.8 0
v -97.6 -236.8 0
v -97.6 -235.2 0
v -96 -235.2 0
v -49.6 -238.4 0
v -51.2 -238.4 0
v -51.2 -236.8 0
v -49.6 -236.8 0
v -60.8 -238.4 0
v -62.4 -238.4 0
v -62.4 -236.8 0
v -60.8 -236.8 0
v -35.2 -240 0
v -36.8 -240 0
v -36.8 -238.4 0
v -35.2 -238.4 0
v -3.2 -243.2 0
v -4.8 -243.2 0
v -4.8 -241.6 0
v -3.2 -241.6 0
v -12.8 -243.2 0
v -14.4 -243.2 0
v -14.4 -241.6 0
v -12.8 -241.6 0
v -67.2 -243.2 0
v -68.8 -243.2 0
v -68.8 -241.6 0
v -67.2 -241.6 0
v -112 -243.2 0
v -113.6 -243.2 0
v -113.6 -241.6 0
v -112 -241.6 0
v -3.2 -244.8 0
v -4.8 -244.8 0
v -4.8 -243.2 0
v -3.2 -243.2 0
v -44.8 -244.8 0
v -46.4 -244.8 0
v -46.4 -243.2 0
v -44.8 -243.2 0
v -78.4 -244.8 0
v -80 -244.8 0
v -80 -243.2 0
v -78.4 -243.2 0
v -185.6 -244.8 0
v -187.2 -244.8 0
v -187.2 -243.2 0
v -185.6 -243.2 0
v -3.2 -246.4 0
v -4.8 -246.4 0
v -4.8 -244.8 0
v -3.2 -244.8 0
v -94.4 -246.4 0
v -96 -246.4 0
v -96 -244.8 0
v -94.4 -244.8 0
v -96 -249.6 0
v -97.6 -249.6 0
v -97.6 -248 0
v -96 -248 0
v -129.6 -249.6 0
v -131.2 -249.6 0
v -131.2 -248 0
v -129.6 -248 0
v -188.8 -249.6 0
v -190.4 -249.6 0
v -190.4 -248 0
v -188.8 -248 0
v -9.6 -251.2 0
v -11.2 -251.2 0
v -11.2 -249.6 0
v -9.6 -249.6 0
v -144 -251.2 0
v -145.6 -251.2 0
v -145.6 -249.6 0
v -144 -249.6 0
v -115.2 -254.4 0
v -116.8 -254.4 0
v -116.8 -252.8 0
v -115.2 -252.8 0
v -180.8 -254.4 0
v -182.4 -254.4 0
v -182.4 -252.8 0
v -180.8 -252.8 0
v -3.2 -256 0
v -4.8 -256 0
v -4.8 -254.4 0
v -3.2 -254.4 0
v -91.2 -256 0
v -92.8 -256 0
v -92.8 -254.4 0
v -91.2 -254.4 0
v -193.6 -256 0
v -195.2 -256 0
v -195.2 -254.4 0
v -193.6 -254.4 0
v -198.4 -256 0
v -200 -256 0
v -200 -254.4 0
v -198.4 -254.4 0
v -25.6 -257.6 0
v -27.2 -257.6 0
v -27.2 -256 0
v -25.6 -256 0
v -20.8 -259.2 0
v -22.4 -259.2 0
v -22.4 -257.6 0
v -20.8 -257.6 0
v -96 -259.2 0
v -97.6 -259.2 0
v -97.6 -257.6 0
v -96 -257.6 0
v -118.4 -259.2 0
v -120 -259.2 0
v -120 -257.6 0
v -118.4 -257.6 0
v -150.4 -260.8 0
v -152 -260.8 0
v -152 -259.2 0
v -150.4 -259.2 0
v -11.2 -262.4 0
v -12.8 -262.4 0
v -12.8 -260.8 0
v -11.2 -260.8 0
v -129.6 -264 0
v -131.2 -264 0
v -131.2 -262.4 0
v -129.6 -262.4 0
v -161.6 -264 0
v -163.2 -264 0
v -163.2 -262.4 0
v -161.6 -262.4 0
v -3.2 -267.2 0
v -4.8 -267.2 0
v -4.8 -265.6 0
v -3.2 -265.6 0
v -75.2 -267.2 0
v -76.8 -267.2 0
v -76.8 -265.6 0
v -75.2 -265.6 0
v -88 -267.2 0
v -89.6 -267.2 0
v -89.6 -265.6 0
v -88 -265.6 0
v -96 -267.2 0
v -97.6 -267.2 0
v -97.6 -265.6 0
v -96 -265.6 0
v -104 -267.2 0
v -105.6 -267.2 0
v -105.6 -265.6 0
v -104 -265.6 0
v -120 -267.2 0
v -121.6 -267.2 0
v -121.6 -265.6 0
v -120 -265.6 0
v -132.8 -267.2 0
v -134.4 -267.2 0
v -134.4 -265.6 0
v -132.8 -265.6 0
v -92.8 -268.8 0
v -94.4 -268.8 0
v -94.4 -267.2 0
v -92.8 -267.2 0
v -102.4 -268.8 0
v -104 -268.8 0
v -104 -267.2 0
v -102.4 -267.2 0
v -169.6 -268.8 0
v -171.2 -268.8 0
v -171.2 -267.2 0
v -169.6 -267.2 0
v -198.4 -268.8 0
v -200 -268.8 0
v -200 -267.2 0
v -198.4 -267.2 0
v -25.6 -270.4 0
v -27.2 -270.4 0
v -27.2 -268.8 0
v -25.6 -268.8 0
v -147.2 -270.4 0
v -148.8 -270.4 0
v -148.8 -268.8 0
v -147.2 -268.8 0

# Texture cooridinates (Count = 99)
vt 0.9921875 0.1538461
vt 1 0.1538461
vt 1 0.1794872
vt 0.9921875 0.1794872
vt 0.9765625 0.2051282
vt 0.984375 0.2051282
vt 0.984375 0.2307692
vt 0.9765625 0.2307692
vt 0.9765625 0.1794872
vt 0.984375 0.1794872
vt 0.9921875 0.2051282
vt 0.9921875 0.2307692
vt 0.5703125 0.6666666
vt 0.578125 0.6666666
vt 0.578125 0.6923077
vt 0.5703125 0.6923077
vt 0.5859375 0.6666666
vt 0.5859375 0.6923077
vt 0.59375 0.6666666
vt 0.59375 0.6923077
vt 1 0.2051282
vt 1 0.2307692
vt 0.984375 0.6666666
vt 0.9921875 0.6666666
vt 0.9921875 0.6923077
vt 0.984375 0.6923077
vt 0.984375 0.6153846
vt 0.9921875 0.6153846
vt 0.9921875 0.6410257
vt 0.984375 0.6410257
vt 0.9765625 0.7179487
vt 0.984375 0.7179487
vt 0.984375 0.7435898
vt 0.9765625 0.7435898
vt 0.9921875 0.7179487
vt 1 0.7179487
vt 1 0.7435898
vt 0.9921875 0.7435898
vt 0.9921875 0.3846154
vt 1 0.3846154
vt 1 0.4102564
vt 0.9921875 0.4102564
vt 1 0.6666666
vt 1 0.6923077
vt 1 0.2564102
vt 0.9921875 0.2564102
vt 0.5234375 0.5384616
vt 0.53125 0.5384616
vt 0.53125 0.5641025
vt 0.5234375 0.5641025
vt 0.9921875 0.5897436
vt 1 0.5897436
vt 1 0.6153846
vt 1 0.2820513
vt 0.9921875 0.2820513
vt 0.9765625 0.2820513
vt 0.984375 0.2820513
vt 0.984375 0.3076923
vt 0.9765625 0.3076923
vt 0.9921875 0.5641025
vt 1 0.5641025
vt 0.984375 0.2564102
vt 0.9921875 0.3076923
vt 1 0.3076923
vt 0.984375 0.5897436
vt 0.9765625 0.5641025
vt 0.984375 0.5641025
vt 0.9765625 0.5897436
vt 0.984375 0.5384616
vt 0.9921875 0.5384616
vt 0.53125 0.2307692
vt 0.5390625 0.2307692
vt 0.5390625 0.2564102
vt 0.53125 0.2564102
vt 0.5390625 0.2820513
vt 0.53125 0.2820513
vt 0.515625 0.1025641
vt 0.5234375 0.1025641
vt 0.5234375 0.1282051
vt 0.515625 0.1282051
vt 0.546875 0.2820513
vt 0.546875 0.3076923
vt 0.5390625 0.3076923
vt 0.546875 0.2564102
vt 0.9921875 0.07692307
vt 1 0.07692307
vt 1 0.1025641
vt 0.9921875 0.1025641
vt 0.5234375 0.2820513
vt 0.53125 0.3076923
vt 0.5234375 0.3076923
vt 0.9765625 0.1282051
vt 0.984375 0.1282051
vt 0.984375 0.1538461
vt 0.9765625 0.1538461
vt 0.984375 0.1025641
vt 0.9921875 0.1282051
vt 0.53125 0.1025641
vt 0.53125 0.1282051

# Normal
vn 0 0 -1

# Mesh description
g blowhardLoupe_mesh_0008

# Faces
f 1/1/1 2/2/1 3/3/1 4/4/1
f 5/1/1 6/2/1 7/3/1 8/4/1
f 9/1/1 10/2/1 11/3/1 12/4/1
f 13/5/1 14/6/1 15/7/1 16/8/1
f 17/9/1 18/10/1 19/6/1 20/5/1
f 21/6/1 22/11/1 23/12/1 24/7/1
f 25/5/1 26/6/1 27/7/1 28/8/1
f 29/1/1 30/2/1 31/3/1 32/4/1
f 33/6/1 34/11/1 35/12/1 36/7/1
f 37/5/1 38/6/1 39/7/1 40/8/1
f 41/10/1 42/4/1 43/11/1 44/6/1
f 45/1/1 46/2/1 47/3/1 48/4/1
f 49/5/1 50/6/1 51/7/1 52/8/1
f 53/9/1 54/10/1 55/6/1 56/5/1
f 57/13/1 58/14/1 59/15/1 60/16/1
f 61/14/1 62/17/1 63/18/1 64/15/1
f 65/17/1 66/19/1 67/20/1 68/18/1
f 69/6/1 70/11/1 71/12/1 72/7/1
f 73/6/1 74/11/1 75/12/1 76/7/1
f 77/10/1 78/4/1 79/11/1 80/6/1
f 81/5/1 82/6/1 83/7/1 84/8/1
f 85/9/1 86/10/1 87/6/1 88/5/1
f 89/6/1 90/11/1 91/12/1 92/7/1
f 93/6/1 94/11/1 95/12/1 96/7/1
f 97/5/1 98/6/1 99/7/1 100/8/1
f 101/13/1 102/14/1 103/15/1 104/16/1
f 105/14/1 106/17/1 107/18/1 108/15/1
f 109/17/1 110/19/1 111/20/1 112/18/1
f 113/13/1 114/14/1 115/15/1 116/16/1
f 117/14/1 118/17/1 119/18/1 120/15/1
f 121/17/1 122/19/1 123/20/1 124/18/1
f 125/11/1 126/21/1 127/22/1 128/12/1
f 129/4/1 130/3/1 131/21/1 132/11/1
f 133/5/1 134/6/1 135/7/1 136/8/1
f 137/1/1 138/2/1 139/3/1 140/4/1
f 141/6/1 142/11/1 143/12/1 144/7/1
f 145/1/1 146/2/1 147/3/1 148/4/1
f 149/10/1 150/4/1 151/11/1 152/6/1
f 153/1/1 154/2/1 155/3/1 156/4/1
f 157/5/1 158/6/1 159/7/1 160/8/1
f 161/23/1 162/24/1 163/25/1 164/26/1
f 165/10/1 166/4/1 167/11/1 168/6/1
f 169/27/1 170/28/1 171/29/1 172/30/1
f 173/23/1 174/24/1 175/25/1 176/26/1
f 177/27/1 178/28/1 179/29/1 180/30/1
f 181/23/1 182/24/1 183/25/1 184/26/1
f 185/27/1 186/28/1 187/29/1 188/30/1
f 189/31/1 190/32/1 191/33/1 192/34/1
f 193/35/1 194/36/1 195/37/1 196/38/1
f 197/39/1 198/40/1 199/41/1 200/42/1
f 201/23/1 202/24/1 203/25/1 204/26/1
f 205/39/1 206/40/1 207/41/1 208/42/1
f 209/39/1 210/40/1 211/41/1 212/42/1
f 213/27/1 214/28/1 215/29/1 216/30/1
f 217/23/1 218/24/1 219/25/1 220/26/1
f 221/39/1 222/40/1 223/41/1 224/42/1
f 225/39/1 226/40/1 227/41/1 228/42/1
f 229/23/1 230/24/1 231/25/1 232/26/1
f 233/39/1 234/40/1 235/41/1 236/42/1
f 237/39/1 238/40/1 239/41/1 240/42/1
f 241/23/1 242/24/1 243/25/1 244/26/1
f 245/24/1 246/43/1 247/44/1 248/25/1
f 249/27/1 250/28/1 251/29/1 252/30/1
f 253/27/1 254/28/1 255/29/1 256/30/1
f 257/12/1 258/22/1 259/45/1 260/46/1
f 261/47/1 262/48/1 263/49/1 264/50/1
f 265/47/1 266/48/1 267/49/1 268/50/1
f 269/47/1 270/48/1 271/49/1 272/50/1
f 273/47/1 274/48/1 275/49/1 276/50/1
f 277/51/1 278/52/1 279/53/1 280/28/1
f 281/47/1 282/48/1 283/49/1 284/50/1
f 285/46/1 286/45/1 287/54/1 288/55/1
f 289/56/1 290/57/1 291/58/1 292/59/1
f 293/60/1 294/61/1 295/52/1 296/51/1
f 297/12/1 298/22/1 299/45/1 300/46/1
f 301/62/1 302/46/1 303/55/1 304/57/1
f 305/57/1 306/55/1 307/63/1 308/58/1
f 309/62/1 310/46/1 311/55/1 312/57/1
f 313/57/1 314/55/1 315/63/1 316/58/1
f 317/56/1 318/57/1 319/58/1 320/59/1
f 321/12/1 322/22/1 323/45/1 324/46/1
f 325/12/1 326/22/1 327/45/1 328/46/1
f 329/55/1 330/54/1 331/64/1 332/63/1
f 333/62/1 334/46/1 335/55/1 336/57/1
f 337/56/1 338/57/1 339/58/1 340/59/1
f 341/65/1 342/51/1 343/28/1 344/27/1
f 345/62/1 346/46/1 347/55/1 348/57/1
f 349/66/1 350/67/1 351/65/1 352/68/1
f 353/69/1 354/70/1 355/60/1 356/67/1
f 357/55/1 358/54/1 359/64/1 360/63/1
f 361/12/1 362/22/1 363/45/1 364/46/1
f 365/66/1 366/67/1 367/65/1 368/68/1
f 369/60/1 370/61/1 371/52/1 372/51/1
f 373/12/1 374/22/1 375/45/1 376/46/1
f 377/62/1 378/46/1 379/55/1 380/57/1
f 381/12/1 382/22/1 383/45/1 384/46/1
f 385/66/1 386/67/1 387/65/1 388/68/1
f 389/62/1 390/46/1 391/55/1 392/57/1
f 393/65/1 394/51/1 395/28/1 396/27/1
f 397/71/1 398/72/1 399/73/1 400/74/1
f 401/71/1 402/72/1 403/73/1 404/74/1
f 405/12/1 406/22/1 407/45/1 408/46/1
f 409/74/1 410/73/1 411/75/1 412/76/1
f 413/77/1 414/78/1 415/79/1 416/80/1
f 417/75/1 418/81/1 419/82/1 420/83/1
f 421/74/1 422/73/1 423/75/1 424/76/1
f 425/74/1 426/73/1 427/75/1 428/76/1
f 429/73/1 430/84/1 431/81/1 432/75/1
f 433/73/1 434/84/1 435/81/1 436/75/1
f 437/55/1 438/54/1 439/64/1 440/63/1
f 441/71/1 442/72/1 443/73/1 444/74/1
f 445/71/1 446/72/1 447/73/1 448/74/1
f 449/74/1 450/73/1 451/75/1 452/76/1
f 453/75/1 454/81/1 455/82/1 456/83/1
f 457/62/1 458/46/1 459/55/1 460/57/1
f 461/77/1 462/78/1 463/79/1 464/80/1
f 465/71/1 466/72/1 467/73/1 468/74/1
f 469/73/1 470/84/1 471/81/1 472/75/1
f 473/71/1 474/72/1 475/73/1 476/74/1
f 477/75/1 478/81/1 479/82/1 480/83/1
f 481/73/1 482/84/1 483/81/1 484/75/1
f 485/74/1 486/73/1 487/75/1 488/76/1
f 489/73/1 490/84/1 491/81/1 492/75/1
f 493/85/1 494/86/1 495/87/1 496/88/1
f 497/73/1 498/84/1 499/81/1 500/75/1
f 501/74/1 502/73/1 503/75/1 504/76/1
f 505/71/1 506/72/1 507/73/1 508/74/1
f 509/89/1 510/76/1 511/90/1 512/91/1
f 513/74/1 514/73/1 515/75/1 516/76/1
f 517/77/1 518/78/1 519/79/1 520/80/1
f 521/74/1 522/73/1 523/75/1 524/76/1
f 525/75/1 526/81/1 527/82/1 528/83/1
f 529/92/1 530/93/1 531/94/1 532/95/1
f 533/74/1 534/73/1 535/75/1 536/76/1
f 537/89/1 538/76/1 539/90/1 540/91/1
f 541/74/1 542/73/1 543/75/1 544/76/1
f 545/96/1 546/88/1 547/97/1 548/93/1
f 549/74/1 550/73/1 551/75/1 552/76/1
f 553/73/1 554/84/1 555/81/1 556/75/1
f 557/89/1 558/76/1 559/90/1 560/91/1
f 561/71/1 562/72/1 563/73/1 564/74/1
f 565/96/1 566/88/1 567/97/1 568/93/1
f 569/77/1 570/78/1 571/79/1 572/80/1
f 573/71/1 574/72/1 575/73/1 576/74/1
f 577/71/1 578/72/1 579/73/1 580/74/1
f 581/74/1 582/73/1 583/75/1 584/76/1
f 585/73/1 586/84/1 587/81/1 588/75/1
f 589/75/1 590/81/1 591/82/1 592/83/1
f 593/92/1 594/93/1 595/94/1 596/95/1
f 597/77/1 598/78/1 599/79/1 600/80/1
f 601/77/1 602/78/1 603/79/1 604/80/1
f 605/78/1 606/98/1 607/99/1 608/79/1
f 609/77/1 610/78/1 611/79/1 612/80/1
f 613/77/1 614/78/1 615/79/1 616/80/1
f 617/77/1 618/78/1 619/79/1 620/80/1
f 621/71/1 622/72/1 623/73/1 624/74/1
f 625/75/1 626/81/1 627/82/1 628/83/1
f 629/74/1 630/73/1 631/75/1 632/76/1
f 633/74/1 634/73/1 635/75/1 636/76/1
f 637/74/1 638/73/1 639/75/1 640/76/1
f 641/73/1 642/84/1 643/81/1 644/75/1

