# Tiled2Unity generated file. Do not modify by hand.
# Wavefront file for 'blowhardLoupe_mesh_0009.obj'

# Vertices (Count = 720)
v -6.4 -1.6 0
v -8 -1.6 0
v -8 0 0
v -6.4 0 0
v -8 -1.6 0
v -9.6 -1.6 0
v -9.6 0 0
v -8 0 0
v -27.2 -3.2 0
v -28.8 -3.2 0
v -28.8 -1.6 0
v -27.2 -1.6 0
v -40 -3.2 0
v -41.6 -3.2 0
v -41.6 -1.6 0
v -40 -1.6 0
v -51.2 -3.2 0
v -52.8 -3.2 0
v -52.8 -1.6 0
v -51.2 -1.6 0
v -57.6 -3.2 0
v -59.2 -3.2 0
v -59.2 -1.6 0
v -57.6 -1.6 0
v -65.6 -3.2 0
v -67.2 -3.2 0
v -67.2 -1.6 0
v -65.6 -1.6 0
v -67.2 -3.2 0
v -68.8 -3.2 0
v -68.8 -1.6 0
v -67.2 -1.6 0
v -68.8 -3.2 0
v -70.4 -3.2 0
v -70.4 -1.6 0
v -68.8 -1.6 0
v -70.4 -3.2 0
v -72 -3.2 0
v -72 -1.6 0
v -70.4 -1.6 0
v -72 -3.2 0
v -73.6 -3.2 0
v -73.6 -1.6 0
v -72 -1.6 0
v -73.6 -3.2 0
v -75.2 -3.2 0
v -75.2 -1.6 0
v -73.6 -1.6 0
v -3.2 -4.8 0
v -4.8 -4.8 0
v -4.8 -3.2 0
v -3.2 -3.2 0
v -22.4 -4.8 0
v -24 -4.8 0
v -24 -3.2 0
v -22.4 -3.2 0
v -32 -4.8 0
v -33.6 -4.8 0
v -33.6 -3.2 0
v -32 -3.2 0
v -96 -4.8 0
v -97.6 -4.8 0
v -97.6 -3.2 0
v -96 -3.2 0
v -65.6 -6.4 0
v -67.2 -6.4 0
v -67.2 -4.8 0
v -65.6 -4.8 0
v -67.2 -6.4 0
v -68.8 -6.4 0
v -68.8 -4.8 0
v -67.2 -4.8 0
v -68.8 -6.4 0
v -70.4 -6.4 0
v -70.4 -4.8 0
v -68.8 -4.8 0
v -70.4 -6.4 0
v -72 -6.4 0
v -72 -4.8 0
v -70.4 -4.8 0
v -72 -6.4 0
v -73.6 -6.4 0
v -73.6 -4.8 0
v -72 -4.8 0
v -73.6 -6.4 0
v -75.2 -6.4 0
v -75.2 -4.8 0
v -73.6 -4.8 0
v -182.4 -6.4 0
v -184 -6.4 0
v -184 -4.8 0
v -182.4 -4.8 0
v -51.2 -8 0
v -52.8 -8 0
v -52.8 -6.4 0
v -51.2 -6.4 0
v -36.8 -9.6 0
v -38.4 -9.6 0
v -38.4 -8 0
v -36.8 -8 0
v -124.8 -9.6 0
v -126.4 -9.6 0
v -126.4 -8 0
v -124.8 -8 0
v -168 -9.6 0
v -169.6 -9.6 0
v -169.6 -8 0
v -168 -8 0
v -17.6 -11.2 0
v -19.2 -11.2 0
v -19.2 -9.6 0
v -17.6 -9.6 0
v -40 -11.2 0
v -41.6 -11.2 0
v -41.6 -9.6 0
v -40 -9.6 0
v -44.8 -11.2 0
v -46.4 -11.2 0
v -46.4 -9.6 0
v -44.8 -9.6 0
v -65.6 -11.2 0
v -67.2 -11.2 0
v -67.2 -9.6 0
v -65.6 -9.6 0
v -9.6 -12.8 0
v -11.2 -12.8 0
v -11.2 -11.2 0
v -9.6 -11.2 0
v -70.4 -12.8 0
v -72 -12.8 0
v -72 -11.2 0
v -70.4 -11.2 0
v -6.4 -14.4 0
v -8 -14.4 0
v -8 -12.8 0
v -6.4 -12.8 0
v -33.6 -14.4 0
v -35.2 -14.4 0
v -35.2 -12.8 0
v -33.6 -12.8 0
v -172.8 -14.4 0
v -174.4 -14.4 0
v -174.4 -12.8 0
v -172.8 -12.8 0
v -136 -16 0
v -137.6 -16 0
v -137.6 -14.4 0
v -136 -14.4 0
v -147.2 -16 0
v -148.8 -16 0
v -148.8 -14.4 0
v -147.2 -14.4 0
v -148.8 -16 0
v -150.4 -16 0
v -150.4 -14.4 0
v -148.8 -14.4 0
v -150.4 -16 0
v -152 -16 0
v -152 -14.4 0
v -150.4 -14.4 0
v -27.2 -17.6 0
v -28.8 -17.6 0
v -28.8 -16 0
v -27.2 -16 0
v -108.8 -17.6 0
v -110.4 -17.6 0
v -110.4 -16 0
v -108.8 -16 0
v -147.2 -17.6 0
v -148.8 -17.6 0
v -148.8 -16 0
v -147.2 -16 0
v -148.8 -17.6 0
v -150.4 -17.6 0
v -150.4 -16 0
v -148.8 -16 0
v -150.4 -17.6 0
v -152 -17.6 0
v -152 -16 0
v -150.4 -16 0
v -192 -17.6 0
v -193.6 -17.6 0
v -193.6 -16 0
v -192 -16 0
v -131.2 -19.2 0
v -132.8 -19.2 0
v -132.8 -17.6 0
v -131.2 -17.6 0
v -132.8 -19.2 0
v -134.4 -19.2 0
v -134.4 -17.6 0
v -132.8 -17.6 0
v -190.4 -19.2 0
v -192 -19.2 0
v -192 -17.6 0
v -190.4 -17.6 0
v -16 -20.8 0
v -17.6 -20.8 0
v -17.6 -19.2 0
v -16 -19.2 0
v -80 -20.8 0
v -81.6 -20.8 0
v -81.6 -19.2 0
v -80 -19.2 0
v -137.6 -20.8 0
v -139.2 -20.8 0
v -139.2 -19.2 0
v -137.6 -19.2 0
v -182.4 -20.8 0
v -184 -20.8 0
v -184 -19.2 0
v -182.4 -19.2 0
v -190.4 -20.8 0
v -192 -20.8 0
v -192 -19.2 0
v -190.4 -19.2 0
v -6.4 -22.4 0
v -8 -22.4 0
v -8 -20.8 0
v -6.4 -20.8 0
v -9.6 -22.4 0
v -11.2 -22.4 0
v -11.2 -20.8 0
v -9.6 -20.8 0
v -84.8 -22.4 0
v -86.4 -22.4 0
v -86.4 -20.8 0
v -84.8 -20.8 0
v -172.8 -22.4 0
v -174.4 -22.4 0
v -174.4 -20.8 0
v -172.8 -20.8 0
v -49.6 -24 0
v -51.2 -24 0
v -51.2 -22.4 0
v -49.6 -22.4 0
v -54.4 -24 0
v -56 -24 0
v -56 -22.4 0
v -54.4 -22.4 0
v -64 -24 0
v -65.6 -24 0
v -65.6 -22.4 0
v -64 -22.4 0
v -73.6 -24 0
v -75.2 -24 0
v -75.2 -22.4 0
v -73.6 -22.4 0
v -132.8 -24 0
v -134.4 -24 0
v -134.4 -22.4 0
v -132.8 -22.4 0
v -160 -24 0
v -161.6 -24 0
v -161.6 -22.4 0
v -160 -22.4 0
v -161.6 -24 0
v -163.2 -24 0
v -163.2 -22.4 0
v -161.6 -22.4 0
v -163.2 -24 0
v -164.8 -24 0
v -164.8 -22.4 0
v -163.2 -22.4 0
v -179.2 -24 0
v -180.8 -24 0
v -180.8 -22.4 0
v -179.2 -22.4 0
v -41.6 -25.6 0
v -43.2 -25.6 0
v -43.2 -24 0
v -41.6 -24 0
v -80 -25.6 0
v -81.6 -25.6 0
v -81.6 -24 0
v -80 -24 0
v -131.2 -25.6 0
v -132.8 -25.6 0
v -132.8 -24 0
v -131.2 -24 0
v -140.8 -25.6 0
v -142.4 -25.6 0
v -142.4 -24 0
v -140.8 -24 0
v -142.4 -25.6 0
v -144 -25.6 0
v -144 -24 0
v -142.4 -24 0
v -160 -25.6 0
v -161.6 -25.6 0
v -161.6 -24 0
v -160 -24 0
v -161.6 -25.6 0
v -163.2 -25.6 0
v -163.2 -24 0
v -161.6 -24 0
v -163.2 -25.6 0
v -164.8 -25.6 0
v -164.8 -24 0
v -163.2 -24 0
v -11.2 -27.2 0
v -12.8 -27.2 0
v -12.8 -25.6 0
v -11.2 -25.6 0
v -46.4 -27.2 0
v -48 -27.2 0
v -48 -25.6 0
v -46.4 -25.6 0
v -60.8 -27.2 0
v -62.4 -27.2 0
v -62.4 -25.6 0
v -60.8 -25.6 0
v -38.4 -28.8 0
v -40 -28.8 0
v -40 -27.2 0
v -38.4 -27.2 0
v -41.6 -28.8 0
v -43.2 -28.8 0
v -43.2 -27.2 0
v -41.6 -27.2 0
v -134.4 -28.8 0
v -136 -28.8 0
v -136 -27.2 0
v -134.4 -27.2 0
v -196.8 -28.8 0
v -198.4 -28.8 0
v -198.4 -27.2 0
v -196.8 -27.2 0
v -198.4 -28.8 0
v -200 -28.8 0
v -200 -27.2 0
v -198.4 -27.2 0
v -200 -28.8 0
v -201.6 -28.8 0
v -201.6 -27.2 0
v -200 -27.2 0
v -1.6 -30.4 0
v -3.2 -30.4 0
v -3.2 -28.8 0
v -1.6 -28.8 0
v -128 -30.4 0
v -129.6 -30.4 0
v -129.6 -28.8 0
v -128 -28.8 0
v -132.8 -30.4 0
v -134.4 -30.4 0
v -134.4 -28.8 0
v -132.8 -28.8 0
v -196.8 -30.4 0
v -198.4 -30.4 0
v -198.4 -28.8 0
v -196.8 -28.8 0
v -198.4 -30.4 0
v -200 -30.4 0
v -200 -28.8 0
v -198.4 -28.8 0
v -200 -30.4 0
v -201.6 -30.4 0
v -201.6 -28.8 0
v -200 -28.8 0
v -107.2 -32 0
v -108.8 -32 0
v -108.8 -30.4 0
v -107.2 -30.4 0
v -116.8 -32 0
v -118.4 -32 0
v -118.4 -30.4 0
v -116.8 -30.4 0
v -113.6 -33.6 0
v -115.2 -33.6 0
v -115.2 -32 0
v -113.6 -32 0
v -12.8 -35.2 0
v -14.4 -35.2 0
v -14.4 -33.6 0
v -12.8 -33.6 0
v -8 -36.8 0
v -9.6 -36.8 0
v -9.6 -35.2 0
v -8 -35.2 0
v -11.2 -36.8 0
v -12.8 -36.8 0
v -12.8 -35.2 0
v -11.2 -35.2 0
v -14.4 -38.4 0
v -16 -38.4 0
v -16 -36.8 0
v -14.4 -36.8 0
v -115.2 -38.4 0
v -116.8 -38.4 0
v -116.8 -36.8 0
v -115.2 -36.8 0
v -9.6 -40 0
v -11.2 -40 0
v -11.2 -38.4 0
v -9.6 -38.4 0
v -12.8 -40 0
v -14.4 -40 0
v -14.4 -38.4 0
v -12.8 -38.4 0
v -28.8 -40 0
v -30.4 -40 0
v -30.4 -38.4 0
v -28.8 -38.4 0
v -118.4 -40 0
v -120 -40 0
v -120 -38.4 0
v -118.4 -38.4 0
v -139.2 -40 0
v -140.8 -40 0
v -140.8 -38.4 0
v -139.2 -38.4 0
v -140.8 -40 0
v -142.4 -40 0
v -142.4 -38.4 0
v -140.8 -38.4 0
v -193.6 -41.6 0
v -195.2 -41.6 0
v -195.2 -40 0
v -193.6 -40 0
v -200 -41.6 0
v -201.6 -41.6 0
v -201.6 -40 0
v -200 -40 0
v -25.6 -43.2 0
v -27.2 -43.2 0
v -27.2 -41.6 0
v -25.6 -41.6 0
v -144 -43.2 0
v -145.6 -43.2 0
v -145.6 -41.6 0
v -144 -41.6 0
v -198.4 -43.2 0
v -200 -43.2 0
v -200 -41.6 0
v -198.4 -41.6 0
v -142.4 -44.8 0
v -144 -44.8 0
v -144 -43.2 0
v -142.4 -43.2 0
v -182.4 -44.8 0
v -184 -44.8 0
v -184 -43.2 0
v -182.4 -43.2 0
v -195.2 -44.8 0
v -196.8 -44.8 0
v -196.8 -43.2 0
v -195.2 -43.2 0
v -24 -46.4 0
v -25.6 -46.4 0
v -25.6 -44.8 0
v -24 -44.8 0
v -137.6 -48 0
v -139.2 -48 0
v -139.2 -46.4 0
v -137.6 -46.4 0
v -184 -48 0
v -185.6 -48 0
v -185.6 -46.4 0
v -184 -46.4 0
v -24 -49.6 0
v -25.6 -49.6 0
v -25.6 -48 0
v -24 -48 0
v -140.8 -49.6 0
v -142.4 -49.6 0
v -142.4 -48 0
v -140.8 -48 0
v -147.2 -49.6 0
v -148.8 -49.6 0
v -148.8 -48 0
v -147.2 -48 0
v -179.2 -51.2 0
v -180.8 -51.2 0
v -180.8 -49.6 0
v -179.2 -49.6 0
v -182.4 -51.2 0
v -184 -51.2 0
v -184 -49.6 0
v -182.4 -49.6 0
v -185.6 -51.2 0
v -187.2 -51.2 0
v -187.2 -49.6 0
v -185.6 -49.6 0
v -16 -52.8 0
v -17.6 -52.8 0
v -17.6 -51.2 0
v -16 -51.2 0
v -20.8 -54.4 0
v -22.4 -54.4 0
v -22.4 -52.8 0
v -20.8 -52.8 0
v -152 -54.4 0
v -153.6 -54.4 0
v -153.6 -52.8 0
v -152 -52.8 0
v -182.4 -54.4 0
v -184 -54.4 0
v -184 -52.8 0
v -182.4 -52.8 0
v -14.4 -56 0
v -16 -56 0
v -16 -54.4 0
v -14.4 -54.4 0
v -6.4 -59.2 0
v -8 -59.2 0
v -8 -57.6 0
v -6.4 -57.6 0
v -163.2 -59.2 0
v -164.8 -59.2 0
v -164.8 -57.6 0
v -163.2 -57.6 0
v -1.6 -62.4 0
v -3.2 -62.4 0
v -3.2 -60.8 0
v -1.6 -60.8 0
v -4.8 -62.4 0
v -6.4 -62.4 0
v -6.4 -60.8 0
v -4.8 -60.8 0
v -156.8 -64 0
v -158.4 -64 0
v -158.4 -62.4 0
v -156.8 -62.4 0
v -163.2 -65.6 0
v -164.8 -65.6 0
v -164.8 -64 0
v -163.2 -64 0
v -164.8 -67.2 0
v -166.4 -67.2 0
v -166.4 -65.6 0
v -164.8 -65.6 0
v -172.8 -67.2 0
v -174.4 -67.2 0
v -174.4 -65.6 0
v -172.8 -65.6 0
v -1.6 -68.8 0
v -3.2 -68.8 0
v -3.2 -67.2 0
v -1.6 -67.2 0
v -169.6 -70.4 0
v -171.2 -70.4 0
v -171.2 -68.8 0
v -169.6 -68.8 0
v -113.6 -144 0
v -115.2 -144 0
v -115.2 -142.4 0
v -113.6 -142.4 0
v -80 -145.6 0
v -81.6 -145.6 0
v -81.6 -144 0
v -80 -144 0
v -81.6 -145.6 0
v -83.2 -145.6 0
v -83.2 -144 0
v -81.6 -144 0
v -83.2 -145.6 0
v -84.8 -145.6 0
v -84.8 -144 0
v -83.2 -144 0
v -84.8 -145.6 0
v -86.4 -145.6 0
v -86.4 -144 0
v -84.8 -144 0
v -80 -147.2 0
v -81.6 -147.2 0
v -81.6 -145.6 0
v -80 -145.6 0
v -81.6 -147.2 0
v -83.2 -147.2 0
v -83.2 -145.6 0
v -81.6 -145.6 0
v -83.2 -147.2 0
v -84.8 -147.2 0
v -84.8 -145.6 0
v -83.2 -145.6 0
v -84.8 -147.2 0
v -86.4 -147.2 0
v -86.4 -145.6 0
v -84.8 -145.6 0
v -80 -148.8 0
v -81.6 -148.8 0
v -81.6 -147.2 0
v -80 -147.2 0
v -81.6 -148.8 0
v -83.2 -148.8 0
v -83.2 -147.2 0
v -81.6 -147.2 0
v -83.2 -148.8 0
v -84.8 -148.8 0
v -84.8 -147.2 0
v -83.2 -147.2 0
v -84.8 -148.8 0
v -86.4 -148.8 0
v -86.4 -147.2 0
v -84.8 -147.2 0
v -16 -153.6 0
v -17.6 -153.6 0
v -17.6 -152 0
v -16 -152 0
v -64 -153.6 0
v -65.6 -153.6 0
v -65.6 -152 0
v -64 -152 0
v -70.4 -153.6 0
v -72 -153.6 0
v -72 -152 0
v -70.4 -152 0
v -8 -155.2 0
v -9.6 -155.2 0
v -9.6 -153.6 0
v -8 -153.6 0
v -75.2 -155.2 0
v -76.8 -155.2 0
v -76.8 -153.6 0
v -75.2 -153.6 0
v -73.6 -156.8 0
v -75.2 -156.8 0
v -75.2 -155.2 0
v -73.6 -155.2 0
v -73.6 -158.4 0
v -75.2 -158.4 0
v -75.2 -156.8 0
v -73.6 -156.8 0
v -97.6 -158.4 0
v -99.2 -158.4 0
v -99.2 -156.8 0
v -97.6 -156.8 0
v -177.6 -158.4 0
v -179.2 -158.4 0
v -179.2 -156.8 0
v -177.6 -156.8 0
v -200 -158.4 0
v -201.6 -158.4 0
v -201.6 -156.8 0
v -200 -156.8 0
v -43.2 -160 0
v -44.8 -160 0
v -44.8 -158.4 0
v -43.2 -158.4 0
v -161.6 -160 0
v -163.2 -160 0
v -163.2 -158.4 0
v -161.6 -158.4 0
v -43.2 -161.6 0
v -44.8 -161.6 0
v -44.8 -160 0
v -43.2 -160 0
v -44.8 -161.6 0
v -46.4 -161.6 0
v -46.4 -160 0
v -44.8 -160 0
v -160 -161.6 0
v -161.6 -161.6 0
v -161.6 -160 0
v -160 -160 0
v -163.2 -161.6 0
v -164.8 -161.6 0
v -164.8 -160 0
v -163.2 -160 0
v -163.2 -166.4 0
v -164.8 -166.4 0
v -164.8 -164.8 0
v -163.2 -164.8 0
v -30.4 -168 0
v -32 -168 0
v -32 -166.4 0
v -30.4 -166.4 0
v -40 -168 0
v -41.6 -168 0
v -41.6 -166.4 0
v -40 -166.4 0
v -185.6 -168 0
v -187.2 -168 0
v -187.2 -166.4 0
v -185.6 -166.4 0
v -46.4 -171.2 0
v -48 -171.2 0
v -48 -169.6 0
v -46.4 -169.6 0
v -177.6 -172.8 0
v -179.2 -172.8 0
v -179.2 -171.2 0
v -177.6 -171.2 0
v -40 -174.4 0
v -41.6 -174.4 0
v -41.6 -172.8 0
v -40 -172.8 0
v -28.8 -177.6 0
v -30.4 -177.6 0
v -30.4 -176 0
v -28.8 -176 0
v -116.8 -177.6 0
v -118.4 -177.6 0
v -118.4 -176 0
v -116.8 -176 0
v -49.6 -179.2 0
v -51.2 -179.2 0
v -51.2 -177.6 0
v -49.6 -177.6 0
v -174.4 -184 0
v -176 -184 0
v -176 -182.4 0
v -174.4 -182.4 0
v -112 -208 0
v -113.6 -208 0
v -113.6 -206.4 0
v -112 -206.4 0
v -155.2 -220.8 0
v -156.8 -220.8 0
v -156.8 -219.2 0
v -155.2 -219.2 0
v -156.8 -222.4 0
v -158.4 -222.4 0
v -158.4 -220.8 0
v -156.8 -220.8 0
v -158.4 -228.8 0
v -160 -228.8 0
v -160 -227.2 0
v -158.4 -227.2 0

# Texture cooridinates (Count = 51)
vt 0.5775862 0.6052631
vt 0.5862069 0.6052631
vt 0.5862069 0.6315789
vt 0.5775862 0.6315789
vt 0.5948276 0.6052631
vt 0.6034483 0.6052631
vt 0.6034483 0.6315789
vt 0.5948276 0.6315789
vt 0.5689655 0.6052631
vt 0.5689655 0.6315789
vt 0.5862069 0.6578947
vt 0.5775862 0.6578947
vt 0.5948276 0.8157895
vt 0.6034483 0.8157895
vt 0.6034483 0.8421053
vt 0.5948276 0.8421053
vt 0.5948276 0.7894737
vt 0.6034483 0.7894737
vt 0.612069 0.6315789
vt 0.612069 0.6578947
vt 0.6034483 0.6578947
vt 0.6206896 0.6315789
vt 0.6206896 0.6578947
vt 0.6293104 0.6315789
vt 0.6293104 0.6578947
vt 0.612069 0.6052631
vt 0.6206896 0.6052631
vt 0.6293104 0.6052631
vt 0.5689655 0.6578947
vt 0.5948276 0.6842105
vt 0.6034483 0.6842105
vt 0.6034483 0.7105263
vt 0.5948276 0.7105263
vt 0.5948276 0.7631579
vt 0.6034483 0.7631579
vt 0.5775862 0.2894737
vt 0.5862069 0.2894737
vt 0.5862069 0.3157895
vt 0.5775862 0.3157895
vt 0.5775862 0.5263158
vt 0.5862069 0.5263158
vt 0.5862069 0.5526316
vt 0.5775862 0.5526316
vt 0.5948276 0.2894737
vt 0.6034483 0.2894737
vt 0.6034483 0.3157895
vt 0.5948276 0.3157895
vt 0.6034483 0.3421053
vt 0.5948276 0.3421053
vt 0.5862069 0.3421053
vt 0.5775862 0.3421053

# Normal
vn 0 0 -1

# Mesh description
g blowhardLoupe_mesh_0009

# Faces
f 1/1/1 2/2/1 3/3/1 4/4/1
f 5/1/1 6/2/1 7/3/1 8/4/1
f 9/1/1 10/2/1 11/3/1 12/4/1
f 13/5/1 14/6/1 15/7/1 16/8/1
f 17/5/1 18/6/1 19/7/1 20/8/1
f 21/5/1 22/6/1 23/7/1 24/8/1
f 25/9/1 26/1/1 27/4/1 28/10/1
f 29/9/1 30/1/1 31/4/1 32/10/1
f 33/9/1 34/1/1 35/4/1 36/10/1
f 37/9/1 38/1/1 39/4/1 40/10/1
f 41/9/1 42/1/1 43/4/1 44/10/1
f 45/9/1 46/1/1 47/4/1 48/10/1
f 49/4/1 50/3/1 51/11/1 52/12/1
f 53/1/1 54/2/1 55/3/1 56/4/1
f 57/1/1 58/2/1 59/3/1 60/4/1
f 61/1/1 62/2/1 63/3/1 64/4/1
f 65/9/1 66/1/1 67/4/1 68/10/1
f 69/9/1 70/1/1 71/4/1 72/10/1
f 73/9/1 74/1/1 75/4/1 76/10/1
f 77/9/1 78/1/1 79/4/1 80/10/1
f 81/9/1 82/1/1 83/4/1 84/10/1
f 85/9/1 86/1/1 87/4/1 88/10/1
f 89/1/1 90/2/1 91/3/1 92/4/1
f 93/5/1 94/6/1 95/7/1 96/8/1
f 97/5/1 98/6/1 99/7/1 100/8/1
f 101/13/1 102/14/1 103/15/1 104/16/1
f 105/1/1 106/2/1 107/3/1 108/4/1
f 109/1/1 110/2/1 111/3/1 112/4/1
f 113/5/1 114/6/1 115/7/1 116/8/1
f 117/5/1 118/6/1 119/7/1 120/8/1
f 121/5/1 122/6/1 123/7/1 124/8/1
f 125/1/1 126/2/1 127/3/1 128/4/1
f 129/5/1 130/6/1 131/7/1 132/8/1
f 133/1/1 134/2/1 135/3/1 136/4/1
f 137/5/1 138/6/1 139/7/1 140/8/1
f 141/1/1 142/2/1 143/3/1 144/4/1
f 145/17/1 146/18/1 147/14/1 148/13/1
f 149/7/1 150/19/1 151/20/1 152/21/1
f 153/19/1 154/22/1 155/23/1 156/20/1
f 157/22/1 158/24/1 159/25/1 160/23/1
f 161/5/1 162/6/1 163/7/1 164/8/1
f 165/4/1 166/3/1 167/11/1 168/12/1
f 169/6/1 170/26/1 171/19/1 172/7/1
f 173/26/1 174/27/1 175/22/1 176/19/1
f 177/27/1 178/28/1 179/24/1 180/22/1
f 181/10/1 182/4/1 183/12/1 184/29/1
f 185/17/1 186/18/1 187/14/1 188/13/1
f 189/17/1 190/18/1 191/14/1 192/13/1
f 193/10/1 194/4/1 195/12/1 196/29/1
f 197/30/1 198/31/1 199/32/1 200/33/1
f 201/17/1 202/18/1 203/14/1 204/13/1
f 205/34/1 206/35/1 207/18/1 208/17/1
f 209/1/1 210/2/1 211/3/1 212/4/1
f 213/10/1 214/4/1 215/12/1 216/29/1
f 217/30/1 218/31/1 219/32/1 220/33/1
f 221/30/1 222/31/1 223/32/1 224/33/1
f 225/13/1 226/14/1 227/15/1 228/16/1
f 229/1/1 230/2/1 231/3/1 232/4/1
f 233/17/1 234/18/1 235/14/1 236/13/1
f 237/34/1 238/35/1 239/18/1 240/17/1
f 241/34/1 242/35/1 243/18/1 244/17/1
f 245/34/1 246/35/1 247/18/1 248/17/1
f 249/34/1 250/35/1 251/18/1 252/17/1
f 253/7/1 254/19/1 255/20/1 256/21/1
f 257/19/1 258/22/1 259/23/1 260/20/1
f 261/22/1 262/24/1 263/25/1 264/23/1
f 265/4/1 266/3/1 267/11/1 268/12/1
f 269/34/1 270/35/1 271/18/1 272/17/1
f 273/17/1 274/18/1 275/14/1 276/13/1
f 277/34/1 278/35/1 279/18/1 280/17/1
f 281/34/1 282/35/1 283/18/1 284/17/1
f 285/34/1 286/35/1 287/18/1 288/17/1
f 289/6/1 290/26/1 291/19/1 292/7/1
f 293/26/1 294/27/1 295/22/1 296/19/1
f 297/27/1 298/28/1 299/24/1 300/22/1
f 301/30/1 302/31/1 303/32/1 304/33/1
f 305/34/1 306/35/1 307/18/1 308/17/1
f 309/17/1 310/18/1 311/14/1 312/13/1
f 313/34/1 314/35/1 315/18/1 316/17/1
f 317/34/1 318/35/1 319/18/1 320/17/1
f 321/34/1 322/35/1 323/18/1 324/17/1
f 325/7/1 326/19/1 327/20/1 328/21/1
f 329/19/1 330/22/1 331/23/1 332/20/1
f 333/22/1 334/24/1 335/25/1 336/23/1
f 337/30/1 338/31/1 339/32/1 340/33/1
f 341/17/1 342/18/1 343/14/1 344/13/1
f 345/34/1 346/35/1 347/18/1 348/17/1
f 349/6/1 350/26/1 351/19/1 352/7/1
f 353/26/1 354/27/1 355/22/1 356/19/1
f 357/27/1 358/28/1 359/24/1 360/22/1
f 361/17/1 362/18/1 363/14/1 364/13/1
f 365/13/1 366/14/1 367/15/1 368/16/1
f 369/17/1 370/18/1 371/14/1 372/13/1
f 373/10/1 374/4/1 375/12/1 376/29/1
f 377/10/1 378/4/1 379/12/1 380/29/1
f 381/10/1 382/4/1 383/12/1 384/29/1
f 385/10/1 386/4/1 387/12/1 388/29/1
f 389/13/1 390/14/1 391/15/1 392/16/1
f 393/10/1 394/4/1 395/12/1 396/29/1
f 397/10/1 398/4/1 399/12/1 400/29/1
f 401/34/1 402/35/1 403/18/1 404/17/1
f 405/13/1 406/14/1 407/15/1 408/16/1
f 409/17/1 410/18/1 411/14/1 412/13/1
f 413/17/1 414/18/1 415/14/1 416/13/1
f 417/34/1 418/35/1 419/18/1 420/17/1
f 421/17/1 422/18/1 423/14/1 424/13/1
f 425/17/1 426/18/1 427/14/1 428/13/1
f 429/34/1 430/35/1 431/18/1 432/17/1
f 433/17/1 434/18/1 435/14/1 436/13/1
f 437/34/1 438/35/1 439/18/1 440/17/1
f 441/34/1 442/35/1 443/18/1 444/17/1
f 445/34/1 446/35/1 447/18/1 448/17/1
f 449/34/1 450/35/1 451/18/1 452/17/1
f 453/17/1 454/18/1 455/14/1 456/13/1
f 457/34/1 458/35/1 459/18/1 460/17/1
f 461/13/1 462/14/1 463/15/1 464/16/1
f 465/13/1 466/14/1 467/15/1 468/16/1
f 469/34/1 470/35/1 471/18/1 472/17/1
f 473/13/1 474/14/1 475/15/1 476/16/1
f 477/34/1 478/35/1 479/18/1 480/17/1
f 481/13/1 482/14/1 483/15/1 484/16/1
f 485/17/1 486/18/1 487/14/1 488/13/1
f 489/17/1 490/18/1 491/14/1 492/13/1
f 493/13/1 494/14/1 495/15/1 496/16/1
f 497/17/1 498/18/1 499/14/1 500/13/1
f 501/34/1 502/35/1 503/18/1 504/17/1
f 505/34/1 506/35/1 507/18/1 508/17/1
f 509/4/1 510/3/1 511/11/1 512/12/1
f 513/34/1 514/35/1 515/18/1 516/17/1
f 517/17/1 518/18/1 519/14/1 520/13/1
f 521/13/1 522/14/1 523/15/1 524/16/1
f 525/34/1 526/35/1 527/18/1 528/17/1
f 529/34/1 530/35/1 531/18/1 532/17/1
f 533/13/1 534/14/1 535/15/1 536/16/1
f 537/13/1 538/14/1 539/15/1 540/16/1
f 541/13/1 542/14/1 543/15/1 544/16/1
f 545/36/1 546/37/1 547/38/1 548/39/1
f 549/40/1 550/41/1 551/42/1 552/43/1
f 553/40/1 554/41/1 555/42/1 556/43/1
f 557/40/1 558/41/1 559/42/1 560/43/1
f 561/40/1 562/41/1 563/42/1 564/43/1
f 565/40/1 566/41/1 567/42/1 568/43/1
f 569/40/1 570/41/1 571/42/1 572/43/1
f 573/40/1 574/41/1 575/42/1 576/43/1
f 577/40/1 578/41/1 579/42/1 580/43/1
f 581/40/1 582/41/1 583/42/1 584/43/1
f 585/40/1 586/41/1 587/42/1 588/43/1
f 589/40/1 590/41/1 591/42/1 592/43/1
f 593/40/1 594/41/1 595/42/1 596/43/1
f 597/36/1 598/37/1 599/38/1 600/39/1
f 601/36/1 602/37/1 603/38/1 604/39/1
f 605/36/1 606/37/1 607/38/1 608/39/1
f 609/36/1 610/37/1 611/38/1 612/39/1
f 613/44/1 614/45/1 615/46/1 616/47/1
f 617/36/1 618/37/1 619/38/1 620/39/1
f 621/44/1 622/45/1 623/46/1 624/47/1
f 625/36/1 626/37/1 627/38/1 628/39/1
f 629/44/1 630/45/1 631/46/1 632/47/1
f 633/36/1 634/37/1 635/38/1 636/39/1
f 637/47/1 638/46/1 639/48/1 640/49/1
f 641/36/1 642/37/1 643/38/1 644/39/1
f 645/47/1 646/46/1 647/48/1 648/49/1
f 649/44/1 650/45/1 651/46/1 652/47/1
f 653/36/1 654/37/1 655/38/1 656/39/1
f 657/36/1 658/37/1 659/38/1 660/39/1
f 661/44/1 662/45/1 663/46/1 664/47/1
f 665/36/1 666/37/1 667/38/1 668/39/1
f 669/36/1 670/37/1 671/38/1 672/39/1
f 673/44/1 674/45/1 675/46/1 676/47/1
f 677/39/1 678/38/1 679/50/1 680/51/1
f 681/36/1 682/37/1 683/38/1 684/39/1
f 685/36/1 686/37/1 687/38/1 688/39/1
f 689/36/1 690/37/1 691/38/1 692/39/1
f 693/36/1 694/37/1 695/38/1 696/39/1
f 697/44/1 698/45/1 699/46/1 700/47/1
f 701/44/1 702/45/1 703/46/1 704/47/1
f 705/44/1 706/45/1 707/46/1 708/47/1
f 709/36/1 710/37/1 711/38/1 712/39/1
f 713/44/1 714/45/1 715/46/1 716/47/1
f 717/36/1 718/37/1 719/38/1 720/39/1

